<svg width="20" height="20" viewBox="0 0 20 20" fill="none" xmlns="http://www.w3.org/2000/svg">
  <path fill-rule="evenodd" clip-rule="evenodd" d="M5.65609 5.35156C5.73245 4.39999 6.52887 3.65156 7.5001 3.65156C8.47133 3.65156 9.26775 4.39999 9.34411 5.35156H5.65609ZM4.3536 5.35164C4.43186 3.68156 5.81066 2.35156 7.5001 2.35156C8.51865 2.35156 9.4243 2.83499 10.0001 3.58492C10.5759 2.83499 11.4815 2.35156 12.5001 2.35156C14.1895 2.35156 15.5683 3.68156 15.6466 5.35164C15.8121 5.35199 15.962 5.35375 16.0915 5.36259C16.2641 5.37436 16.4472 5.40083 16.6315 5.47716C17.0358 5.64463 17.357 5.96584 17.5245 6.37013C17.6008 6.55442 17.6273 6.73761 17.6391 6.91016C17.6501 7.072 17.6501 7.26579 17.6501 7.48198V7.50156V7.52115C17.6501 7.73734 17.6501 7.93112 17.6391 8.09296C17.6273 8.26552 17.6008 8.4487 17.5245 8.63299C17.3596 9.03108 17.0457 9.34861 16.6501 9.51814V12.2016V12.2298V12.2299V12.2299V12.2299V12.2299C16.6501 13.046 16.6501 13.6981 16.6071 14.2249C16.5629 14.7653 16.4702 15.2309 16.2523 15.6586C15.9023 16.3454 15.344 16.9038 14.6572 17.2537C14.2294 17.4717 13.7639 17.5644 13.2234 17.6085C12.6967 17.6516 12.0446 17.6516 11.2285 17.6516H11.2285H11.2285H11.2284H11.2284H11.2001H10.0001H8.8001H8.77182H8.77175H8.77174H8.77173H8.77172C7.95565 17.6516 7.30355 17.6516 6.77677 17.6085C6.23632 17.5644 5.77081 17.4717 5.34303 17.2537C4.65624 16.9038 4.09786 16.3454 3.74793 15.6586C3.52997 15.2309 3.43729 14.7653 3.39313 14.2249C3.35009 13.6981 3.35009 13.0459 3.3501 12.2298L3.3501 12.2016V9.51814C2.95454 9.34861 2.64059 9.03108 2.4757 8.63299C2.39936 8.4487 2.3729 8.26552 2.36112 8.09296C2.35008 7.93113 2.35009 7.73736 2.3501 7.52118V7.52115V7.50156V7.48197V7.48195C2.35009 7.26577 2.35008 7.07199 2.36112 6.91016C2.3729 6.73761 2.39936 6.55442 2.4757 6.37013C2.64316 5.96584 2.96438 5.64463 3.36867 5.47716C3.55296 5.40083 3.73615 5.37436 3.9087 5.36259C4.03818 5.35375 4.18811 5.35199 4.3536 5.35164ZM10.6501 16.3516H11.2001C12.0509 16.3516 12.6499 16.3511 13.1176 16.3128C13.5776 16.2753 13.853 16.2044 14.067 16.0954C14.5092 15.8701 14.8687 15.5106 15.094 15.0684C15.203 14.8545 15.2738 14.5791 15.3114 14.119C15.3496 13.6514 15.3501 13.0524 15.3501 12.2016V9.65156H10.6501V16.3516ZM9.3501 9.65156V16.3516H8.8001C7.9493 16.3516 7.35028 16.3511 6.88264 16.3128C6.42258 16.2753 6.14718 16.2044 5.93322 16.0954C5.49104 15.8701 5.13154 15.5106 4.90623 15.0684C4.79721 14.8545 4.7264 14.5791 4.68881 14.119C4.6506 13.6514 4.6501 13.0524 4.6501 12.2016V9.65156H9.3501ZM10.6501 8.35156H15.5001C15.742 8.35156 15.8908 8.35121 16.003 8.34356C16.0554 8.33998 16.088 8.33544 16.1086 8.33144C16.1184 8.32952 16.1248 8.32787 16.1285 8.32678C16.132 8.32573 16.1337 8.32507 16.134 8.32492C16.2198 8.2894 16.2879 8.22126 16.3235 8.1355L16.3247 8.13193L16.3253 8.12993C16.3264 8.12624 16.3281 8.1199 16.33 8.11007C16.334 8.08951 16.3385 8.05689 16.3421 8.00447C16.3497 7.89227 16.3501 7.74343 16.3501 7.50156C16.3501 7.2597 16.3497 7.11085 16.3421 6.99865C16.3385 6.94623 16.334 6.91362 16.33 6.89306C16.3281 6.88322 16.3264 6.87689 16.3253 6.87319L16.3239 6.86885L16.3235 6.86762C16.2879 6.78186 16.2198 6.71373 16.134 6.6782C16.1337 6.67806 16.132 6.67739 16.1285 6.67634C16.1248 6.67526 16.1184 6.6736 16.1086 6.67169C16.088 6.66768 16.0554 6.66315 16.003 6.65957C15.8908 6.65191 15.742 6.65156 15.5001 6.65156H10.6501V8.35156ZM9.3501 6.65156V8.35156H4.5001C4.25824 8.35156 4.10939 8.35121 3.99719 8.34356C3.94477 8.33998 3.91216 8.33544 3.8916 8.33144C3.88176 8.32952 3.87542 8.32787 3.87173 8.32678C3.86815 8.32573 3.86651 8.32507 3.86616 8.32492C3.7804 8.2894 3.71226 8.22126 3.67674 8.1355C3.6766 8.13515 3.67593 8.13351 3.67488 8.12993C3.6738 8.12624 3.67214 8.1199 3.67023 8.11007C3.66622 8.08951 3.66168 8.05689 3.65811 8.00447C3.65045 7.89227 3.6501 7.74343 3.6501 7.50156C3.6501 7.2597 3.65045 7.11085 3.65811 6.99865C3.66168 6.94623 3.66622 6.91362 3.67023 6.89306C3.67214 6.88322 3.6738 6.87689 3.67488 6.87319C3.67593 6.86961 3.6766 6.86798 3.67674 6.86762C3.71226 6.78186 3.7804 6.71373 3.86616 6.6782C3.86651 6.67806 3.86815 6.67739 3.87173 6.67634C3.87542 6.67526 3.88176 6.6736 3.8916 6.67169C3.91216 6.66768 3.94477 6.66315 3.99719 6.65957C4.10939 6.65191 4.25824 6.65156 4.5001 6.65156H9.3501ZM12.5001 3.65156C13.4713 3.65156 14.2678 4.39999 14.3441 5.35156H10.6561C10.7324 4.39999 11.5289 3.65156 12.5001 3.65156Z" fill="#0a0e14"/>
</svg>
