<svg fill="none" height="20" viewBox="0 0 20 20" width="20" xmlns="http://www.w3.org/2000/svg"><path clip-rule="evenodd" d="m9.39346 3.12623c.27715-.3126.48384-.37623.60654-.37623s.3294.06363.6065.37623c.2764.31173.5596.8056.8126 1.48026.4443 1.18482.7511 2.8073.8174 4.64351h-4.47302c.06636-1.83621.37314-3.45869.81745-4.64351.25299-.67466.53615-1.16853.81253-1.48026zm-3.13089 6.12377c.0668-1.98303.39654-3.79067.91386-5.1702.1216-.32425.2561-.63172.40387-.91619-2.58844.91619-4.50158 3.26079-4.79198 6.08639zm-3.47425 1.5h3.47425c.0668 1.983.39654 3.7907.91386 5.1702.1216.3242.2561.6317.40387.9162-2.58844-.9162-4.50158-3.2608-4.79198-6.0864zm4.97516 0h4.47302c-.0663 1.8362-.3731 3.4587-.8174 4.6435-.253.6747-.5362 1.1685-.8126 1.4803-.2771.3126-.4838.3762-.6065.3762s-.32939-.0636-.60654-.3762c-.27638-.3118-.55954-.8056-.81253-1.4803-.44431-1.1848-.75109-2.8073-.81745-4.6435zm5.97392 0c-.0668 1.983-.3965 3.7907-.9138 5.1702-.1216.3242-.2561.6317-.4039.9162 2.5884-.9162 4.5016-3.2608 4.792-6.0864zm3.4743-1.5c-.2904-2.8256-2.2036-5.1702-4.792-6.08639.1478.28447.2823.59194.4039.91619.5173 1.37953.847 3.18717.9138 5.1702zm1.5383.75c0 4.8325-3.9175 8.75-8.75 8.75-4.83249 0-8.75-3.9175-8.75-8.75 0-4.83249 3.91751-8.75 8.75-8.75 4.8325 0 8.75 3.91751 8.75 8.75z" fill="#0a0e14" fill-rule="evenodd"/></svg>
