<svg fill="none" height="20" viewBox="0 0 20 20" width="20" xmlns="http://www.w3.org/2000/svg"><g clip-rule="evenodd" fill="#0a0e14" fill-rule="evenodd"><path d="m14.3376 3.9543c-1.1904-.37805-2.6175.20405-3.8909 1.14818-.3327.2467-.80246.17696-1.04917-.15577-.2467-.33273-.17696-.80246.15578-1.04916 1.35089-1.00162 3.31599-1.98369 5.23889-1.37272 3.4635 1.10436 4.6054 4.8009 3.6079 7.86987l-.0055.0161c-.5413 1.545-1.429 2.9456-2.595 4.0945l-.0065.0063c-1.5816 1.5213-3.3251 2.8647-5.1992 4.0062-.0005.0003-.001.0006-.0015.0009l-.1949.12c-.3527.2171-.81471.1072-1.03187-.2455-.21715-.3527-.10726-.8147.24547-1.0318l.20109-.1239c1.77981-1.0839 3.43561-2.3594 4.93781-3.8039.9993-.9855 1.7607-2.1863 2.2261-3.51066.8099-2.50371-.1811-5.18484-2.6385-5.96864z"/><path d="m5.65895 3.9543c1.19044-.37805 2.61758.20405 3.89095 1.14818.33273.2467.8025.17696 1.0492-.15577s.1769-.80246-.1558-1.04916c-1.35092-1.00162-3.31603-1.98369-5.23892-1.37272-3.46351 1.10436-4.605421 4.8009-3.60785 7.86987l.00545.0161c.54134 1.545 1.42899 2.9456 2.59504 4.0945l.00643.0063c1.58164 1.5213 3.3251 2.8647 5.19923 4.0062.0005.0003.00101.0006.00151.0009l.1949.12c.35273.2171.81471.1072 1.03191-.2455.2171-.3527.1072-.8147-.2455-1.0318l-.2011-.1239c-1.7798-1.0839-3.43556-2.3594-4.93782-3.8039-.99933-.9855-1.76069-2.1863-2.22612-3.51066-.80987-2.50371.1811-5.18484 2.63849-5.96864z"/></g></svg>
