<svg fill="none" height="20" viewBox="0 0 20 20" width="20" xmlns="http://www.w3.org/2000/svg"><g clip-rule="evenodd" fill="#0a0e14" fill-rule="evenodd"><path d="m8.47442 5.56679c.63526-.86219 1.88908-.95669 2.64628-.19937l4.0122 4.01215c.7573.75733.6628 2.01113-.1994 2.64633l-8.05174 5.9324c-1.23744.8839-2.93263.7436-4.00799-.3318-1.07532-1.0753-1.2156-2.7704-.33172-4.0079l.00645-.009zm1.58568.86125c-.10818-.10814-.2873-.09468-.37806.02851l-1.3274 1.8016 3.88746 3.88755 1.8016-1.3274c.1232-.0908.1367-.2699.0286-.3781zm.9606 6.61756-3.56598-3.56604-1.49984 2.03564 3.0302 3.0302zm-3.25703 2.3997-2.7087-2.7087-1.29519 1.7579c-.45452.6405-.38099 1.5157.17467 2.0714.55562.5556 1.43086.6291 2.07133.1746z"/><path d="m13.314 1.25c.4142 0 .75.33579.75.75v1.41421c0 .41421-.3358.75-.75.75s-.75-.33579-.75-.75v-1.41421c0-.41421.3358-.75.75-.75z"/><path d="m19.2469 7.20389c.1073.4001-.1302.81136-.5303.91857l-1.9318.51764c-.4001.10721-.8113-.13023-.9185-.53033-.1073-.4001.1302-.81135.5303-.91856l1.9318-.51764c.4001-.10721.8113.13022.9185.53032z"/><path d="m18.0869 4.2981c.2929.29289.2929.76776 0 1.06066l-.7071.70711c-.2929.29289-.7677.2929-1.0606 0-.2929-.29289-.2929-.76776 0-1.06066l.7071-.70711c.2929-.29289.7677-.29289 1.0606 0z"/><path d="m15.2583 4.2981c.2929.29289.2929.76776 0 1.06066l-.7071.70711c-.2929.29289-.7677.2929-1.0606 0-.2929-.29289-.2929-.76776 0-1.06066l.7071-.70711c.2929-.29289.7677-.29289 1.0606 0z"/></g></svg>
