<svg fill="none" height="20" viewBox="0 0 20 20" width="20" xmlns="http://www.w3.org/2000/svg"><path clip-rule="evenodd" d="m10 3.25c-2.62335 0-4.75 2.12665-4.75 4.75v1.25h-3.25c-.41421 0-.75.33579-.75.75 0 .4142.33579.75.75.75h3.25v1.25c0 2.6234 2.12665 4.75 4.75 4.75h4c.9665 0 1.75-.7835 1.75-1.75v-2.25h2.25c.4142 0 .75-.3358.75-.75s-.3358-.75-.75-.75h-2.25v-2.5h2.25c.4142 0 .75-.33579.75-.75s-.3358-.75-.75-.75h-2.25v-2.25c0-.9665-.7835-1.75-1.75-1.75zm-3.25 6.75v2c0 1.7949 1.45507 3.25 3.25 3.25h4c.1381 0 .25-.1119.25-.25v-3-4-3c0-.13807-.1119-.25-.25-.25h-4c-1.79493 0-3.25 1.45507-3.25 3.25z" fill="#0a0e14" fill-rule="evenodd"/></svg>
