<svg width="17" height="16" viewBox="0 0 17 16" fill="none" xmlns="http://www.w3.org/2000/svg">
  <path fill-rule="evenodd" clip-rule="evenodd" d="M7.9001 0.349609H7.87118C6.77556 0.349605 5.9135 0.349602 5.21997 0.406265C4.51277 0.464046 3.92377 0.583972 3.38904 0.856429C2.51409 1.30224 1.80273 2.0136 1.35692 2.88855C1.08446 3.42328 0.964534 4.01228 0.906753 4.71949C0.85009 5.41301 0.850093 6.27507 0.850098 7.37069V7.39961V8.59961V8.62853C0.850093 9.72414 0.85009 10.5862 0.906753 11.2797C0.964534 11.9869 1.08446 12.5759 1.35692 13.1107C1.80273 13.9856 2.51409 14.697 3.38904 15.1428C3.92377 15.4152 4.51277 15.5352 5.21997 15.593C5.9135 15.6496 6.77557 15.6496 7.87118 15.6496H7.9001H9.1001H9.12902C10.2246 15.6496 11.0867 15.6496 11.7802 15.593C12.4874 15.5352 13.0764 15.4152 13.6112 15.1428C14.4861 14.697 15.1975 13.9856 15.6433 13.1107C15.9157 12.5759 16.0357 11.9869 16.0934 11.2797C16.1501 10.5862 16.1501 9.72414 16.1501 8.62853V8.59961V7.39961V7.37069C16.1501 6.27508 16.1501 5.41301 16.0934 4.71949C16.0357 4.01228 15.9157 3.42328 15.6433 2.88855C15.1975 2.0136 14.4861 1.30224 13.6112 0.856429C13.0764 0.583972 12.4874 0.464046 11.7802 0.406265C11.0867 0.349602 10.2246 0.349605 9.12902 0.349609H9.1001H7.9001ZM3.97923 2.01474C4.30015 1.85122 4.69902 1.75316 5.32584 1.70195C5.96024 1.65012 6.76927 1.64961 7.9001 1.64961H9.1001C10.2309 1.64961 11.04 1.65012 11.6744 1.70195C12.3012 1.75316 12.7 1.85122 13.021 2.01474C13.6513 2.33591 14.1638 2.8484 14.485 3.47874C14.6485 3.79966 14.7465 4.19854 14.7978 4.82535C14.8496 5.45975 14.8501 6.26878 14.8501 7.39961V8.59961C14.8501 9.73044 14.8496 10.5395 14.7978 11.1739C14.7465 11.8007 14.6485 12.1996 14.485 12.5205C14.1638 13.1508 13.6513 13.6633 13.021 13.9845C12.7 14.148 12.3012 14.2461 11.6744 14.2973C11.04 14.3491 10.2309 14.3496 9.1001 14.3496H7.9001C6.76927 14.3496 5.96024 14.3491 5.32584 14.2973C4.69902 14.2461 4.30015 14.148 3.97923 13.9845C3.34889 13.6633 2.8364 13.1508 2.51523 12.5205C2.35171 12.1996 2.25365 11.8007 2.20244 11.1739C2.1506 10.5395 2.1501 9.73044 2.1501 8.59961V7.39961C2.1501 6.26878 2.1506 5.45975 2.20244 4.82535C2.25365 4.19854 2.35171 3.79966 2.51523 3.47874C2.8364 2.8484 3.34889 2.33591 3.97923 2.01474ZM7.0001 4.49963C5.89553 4.49963 5.0001 5.39506 5.0001 6.49963V9.49963C5.0001 10.6042 5.89553 11.4996 7.0001 11.4996H10.0001C11.1047 11.4996 12.0001 10.6042 12.0001 9.49963V6.49963C12.0001 5.39506 11.1047 4.49963 10.0001 4.49963H7.0001Z" fill="#0A0E14"/>
</svg>
