<svg fill="none" height="20" viewBox="0 0 20 20" width="20" xmlns="http://www.w3.org/2000/svg"><path clip-rule="evenodd" d="m16.2031 3.33176.7485-.04682c-.0247-.39553-.3529-.70355-.7492-.70318zm0 0c.7485-.04682.7486-.04665.7486-.04646v.00048l.0001.00137.0002.00432.0009.01486.0028.05391c.0023.04641.0053.11343.0084.19883.006.17074.0121.41534.0125.71593.0009.60012-.0207 1.42888-.1109 2.34181-.1755 1.77568-.6265 4.06169-1.8448 5.51349-.306.3647-.6442.7221-.9996 1.0672l.0989.1846c.7334 1.3678.5601 3.0443-.4375 4.2333-.7818.9316-2.213.9384-3.0035.014l-.94268-1.1022c-.07852.0509-.15283.0986-.22248.1429-.20171.1284-.36472.2291-.47806.2981-.05668.0345-.10097.0611-.1315.0793l-.03532.021-.0096.0056-.00274.0017-.00084.0004-.00029.0002c-.00011.0001-.0002.0001-.37929-.647l.37909.6471c-.27355.1603-.61832.1312-.86118-.0726l-4.59627-3.8567c-.24286-.2038-.33135-.5383-.22104-.8355l.70314.261c-.70314-.261-.7031-.2611-.70306-.2612l.00012-.0003.00034-.0009.0011-.003.00392-.0104.01453-.0385c.01264-.0332.03115-.0814.05528-.1432.04826-.1236.11908-.3017.21053-.5226.03156-.0763.0656-.1577.10205-.2438l-1.24854-.7365c-1.04754-.61802-1.28947-2.02872-.50768-2.96041.99761-1.18892 2.61856-1.65068 4.09294-1.16597l.19818.06515c.27823-.41003.57156-.80529.87759-1.17001.64435-.7679 1.58123-1.29991 2.54726-1.67735.9755-.38113 2.0455-.62946 3.0238-.79296.9815-.16404 1.8912-.246 2.5544-.28713.3323-.02061.6043-.03106.7945-.03637.0951-.00266.1699-.00403.2216-.00473l.0599-.00065.0165-.00009.0047-.00002h.0014.0005c.0002 0 .0004 0 .0011.75zm-3.3347 10.90144c-.606.5074-1.2155.9687-1.7648 1.3622-.0396.0285-.079.0566-.1181.0843l.8336.9748c.1881.2199.5286.2183.7146-.0033.5692-.6784.6946-1.6191.3347-2.418zm-8.62319-4.39265c-.02112.04403-.04197.08774-.06254.1311l-1.1041-.65134c-.2492-.14701-.30676-.4826-.12078-.70424.56902-.67813 1.47333-.96511 2.32237-.7497-.39442.68476-.7428 1.36502-1.03495 1.97418zm4.29994 5.66745-3.76958-3.163c.02257-.0556.04702-.1152.0733-.1788.17463-.4219.4294-1.011.74883-1.677.64445-1.34369 1.53019-2.95385 2.52881-4.14395.33624-.40072.84248-.7496 1.47692-1.04518l5.12057 4.29663c-.2205.6086-.5002 1.15-.8522 1.5695-.9986 1.1901-2.4305 2.3419-3.6418 3.2099-.60049.4303-1.13639.7835-1.52157 1.0287-.05798.0369-.1125.0714-.16328.1032zm6.60815-7.50916-3.9068-3.27815c.5111-.13638 1.0365-.24477 1.5493-.33046.9164-.15316 1.7722-.23056 2.4-.26949.0994-.00617.1929-.01136.2799-.01573.0005.05483.0008.11228.0009.17218.0008.56466-.0195 1.34153-.1036 2.19207-.0502.50716-.1216 1.02446-.2197 1.52958zm-11.31046 6.17426c.31731.2663.35869.7394.09244 1.0567l-.64278.766c-.26625.3173-.73932.3587-1.05663.0924-.3173-.2662-.35869-.7393-.09244-1.0566l.64279-.766c.26625-.3173.73932-.3587 1.05662-.0925zm.98174 3.1083.64279-.7661c.26625-.3173.22486-.7903-.09245-1.0566-.3173-.2662-.79037-.2249-1.05662.0924l-.64279.7661c-.26625.3173-.22486.7904.09244 1.0566.31731.2663.79038.2249 1.05663-.0924zm2.08244-.5371c.3173.2662.35869.7393.09244 1.0566l-.64279.7661c-.26625.3173-.73932.3586-1.05662.0924-.31731-.2663-.35869-.7393-.09244-1.0566l.64278-.7661c.26626-.3173.73932-.3587 1.05663-.0924zm2.04958-6.97457c.37088-.44199 1.02983-.49964 1.4718-.12877.442.37084.4997 1.02984.1288 1.47184s-1.02984.4996-1.47183.1287c-.44199-.3708-.49964-1.0298-.12877-1.47177zm2.436-1.27783c-1.0766-.90338-2.68169-.76295-3.58506.31365-.90338 1.0766-.76295 2.68165.31365 3.58505s2.68171.763 3.58511-.3136c.9033-1.0766.7629-2.68173-.3137-3.5851z" fill="#0a0e14" fill-rule="evenodd"/></svg>
