<svg fill="none" height="20" viewBox="0 0 20 20" width="20" xmlns="http://www.w3.org/2000/svg"><path clip-rule="evenodd" d="m9.47582 1.31186c.09414-.04081.19566-.06186.29827-.06186h.33671c.0272 0 .0544.00148.0814.00443.5675.06196 1.0499.41736 1.2963.92143l.0046.00944 1.7767 3.76773c.0271.0582.0706.0827.1017.08828l3.9691.60614c.0004.00005-.0003-.00005 0 0 .6319.09539 1.1342.54919 1.3286 1.13807l.0042.01278c.1855.59776.0297 1.26101-.4201 1.70624-.0004.00041-.0008.00083-.0013.00124l-2.9846 2.97392c-.0343.0363-.0588.0994-.0487.1701l.7099 4.136c.1056.6179-.1367 1.259-.65 1.6369-.5098.3873-1.1924.4345-1.7493.1225l-3.54499-1.9465c-.01427-.008-.03066-.0133-.04955-.0147h-.08608l-3.52354 1.9434c-.31817.1682-.68347.2298-1.04364.1689-.00712-.0012-.01422-.0025-.02131-.0039-.89872-.179-1.44067-1.0548-1.3066-1.9206l.0019-.0122.71071-4.1354c.01049-.0747-.01502-.1424-.05329-.1829l-2.88547-2.94416c-.4415-.45092-.58758-1.11497-.39265-1.70882.1886-.58327.67859-1.03589 1.30162-1.13912l.00937-.00155 3.97549-.60705c.01071-.00164.02146-.00304.03224-.00421.02962-.00322.0762-.02495.10641-.08688l1.74975-3.77642.00807-.01688c.07362-.14903.17219-.29386.29847-.42187.01863-.01889.03825-.03677.05877-.05357l.03201-.02622c.07681-.07898.1615-.14579.25146-.20103.0388-.02383.07968-.04407.12215-.06048l.0731-.02825zm.38949 1.5034-1.74941 3.77571c-.23916.50355-.7152.86628-1.28176.93451l-3.95484.60396c-.03672.00705-.09149.04017-.11739.12074l-.00181.00563c-.0244.07392-.00212.14964.0387.19148.00006.00006-.00005-.00006 0 0l2.89255 2.95131c.37474.3886.5387.9332.45635 1.4608l-.00178.0113-.71059 4.1348c-.00823.0596.00671.1135.03316.1533.02345.0353.05061.0527.07473.06.02437.002.05055-.0025.07729-.0158l3.53049-1.9472c.14767-.0839.30661-.1376.46682-.1627.03847-.0061.07734-.0091.11628-.0091h.21677c.00419 0 .00837 0 .01256.0001.00331.0001.00663.0001.00994.0002.25713.0078.51103.0759.74083.2039l3.5479 1.9481c.0203.0114.039.0146.0553.0135.0163-.0012.035-.007.0546-.022l.0165-.0124c.0394-.0286.0754-.0952.0616-.1762 0-.0001.0001 0 0 0l-.7127-4.1527c-.0829-.5263.0818-1.072.4603-1.4584l.0063-.0064 2.9916-2.98082.0024-.00232c.0409-.04038.0653-.11447.0445-.18938-.0287-.07968-.0862-.11259-.1249-.11841l-.0017-.00026-3.9818-.60806c-.5422-.08748-.9947-.44457-1.2235-.93504-.0004-.00069-.0007-.00138-.001-.00206l-1.7702-3.75379c-.0244-.04796-.0591-.07208-.0892-.08156h-.11591c-.01197.01118-.0243.02198-.03699.03236l-.02448.02006c-.00233.00359-.00486.00785-.00751.01284z" fill="#0a0e14" fill-rule="evenodd"/></svg>
