<svg fill="none" height="20" viewBox="0 0 20 20" width="20" xmlns="http://www.w3.org/2000/svg"><path clip-rule="evenodd" d="m5.43184 2.35158.0678.00002.06781-.00002c.39857-.00016.69175-.00027.94918.05094 1.05123.2091 1.87299 1.03086 2.08209 2.08209.02256.1134.03516.23375.04218.36699h1.05874.02824c.81612-.00001 1.46832-.00001 1.99512.04303.5404.04415 1.0059.13683 1.4337.35479.6868.34994 1.2452.90832 1.5951 1.59511.218.42777.3107.89329.3548 1.43374.0431.5268.043 1.17893.043 1.99503v.0001.0282 1.0587c.1333.0071.2536.0197.367.0422 1.0513.2091 1.873 1.0309 2.0821 2.0821.0512.2574.0511.5506.051.9492l-.0001.0678.0001.0678c.0001.3986.0002.6918-.051.9492-.2091 1.0512-1.0308 1.873-2.0821 2.0821-.2574.0512-.5506.0511-.9492.0509h-.0678-.0678c-.3985.0002-.6917.0003-.9491-.0509-1.0513-.2091-1.873-1.0309-2.0821-2.0821-.0512-.2574-.0511-.5506-.051-.9492v-.0678-.0678c-.0001-.3986-.0002-.6918.051-.9492.2091-1.0512 1.0308-1.873 2.0821-2.0821.1134-.0225.2337-.0351.3669-.0422v-1.0587c0-.85081-.0005-1.44982-.0387-1.91747-.0376-.46006-.1084-.73545-.2174-.94941-.2253-.44218-.5848-.80169-1.027-1.02699-.2139-.10902-.4893-.17983-.9494-.21742-.4676-.03821-1.0667-.03871-1.91746-.03871h-1.05874c-.00702.13323-.01962.25358-.04218.36699-.2091 1.05123-1.03086 1.87299-2.08209 2.08209-.1134.02256-.23375.03515-.36699.04218v2.71744c.13324.0071.25359.0197.36699.0422 1.05123.2091 1.87299 1.0309 2.08209 2.0821.05121.2574.0511.5506.05094.9492l-.00002.0678.00002.0678c.00016.3986.00027.6918-.05094.9492-.2091 1.0512-1.03086 1.873-2.08209 2.0821-.25743.0512-.55062.0511-.94919.0509h-.0678-.0678c-.39857.0002-.69175.0003-.94919-.0509-1.05123-.2091-1.87298-1.0309-2.08209-2.0821-.0512-.2574-.05109-.5506-.05093-.9492l.00001-.0678-.00001-.0678c-.00016-.3986-.00027-.6918.05093-.9492.20911-1.0512 1.03086-1.873 2.08209-2.0821.11341-.0225.23376-.0351.36699-.0422v-2.71744c-.13323-.00703-.25358-.01962-.36699-.04218-1.05123-.2091-1.87298-1.03086-2.08209-2.08209-.0512-.25744-.05109-.55062-.05093-.94919l.00001-.0678-.00001-.06781c-.00016-.39857-.00027-.69175.05093-.94918.20911-1.05123 1.03086-1.87299 2.08209-2.08209.25744-.05121.55062-.0511.94919-.05094zm9.06566 10.30002c-.4941 0-.6468.0032-.7612.0259-.5356.1066-.9542.5252-1.0607 1.0607-.0228.1146-.026.2676-.026.7634s.0032.6488.026.7634c.1065.5355.5251.9541 1.0607 1.0607.1146.0227.2675.0259.7633.0259.4959 0 .6488-.0032.7634-.0259.5355-.1066.9542-.5252 1.0607-1.0607.0228-.1146.0259-.2676.0259-.7634s-.0031-.6488-.0259-.7634c-.1065-.5355-.5252-.9541-1.0607-1.0607-.1145-.0227-.2673-.0259-.7622-.0259-.0004 0-.0008 0-.0012 0-.0007 0-.0014 0-.0021 0zm-9.76123.0259c.1145-.0227.26733-.0259.76225-.0259h.00112c.49581 0 .64879.0031.76338.0259.53553.1066.95416.5252 1.06068 1.0607.0228.1146.02594.2676.02594.7634s-.00314.6488-.02594.7634c-.10652.5355-.52515.9541-1.06068 1.0607-.11459.0227-.26757.0259-.76338.0259s-.64879-.0032-.76337-.0259c-.53553-.1066-.95416-.5252-1.06069-1.0607-.02279-.1146-.02594-.2676-.02594-.7634s.00315-.6488.02594-.7634c.10653-.5355.52516-.9541 1.06069-1.0607zm.76337-5.3259c.49581 0 .64879-.00315.76338-.02594.53553-.10653.95416-.52516 1.06068-1.06069.0228-.11458.02594-.26756.02594-.76337s-.00314-.64879-.02594-.76338c-.10652-.53553-.52515-.95416-1.06068-1.06068-.11459-.02279-.26757-.02594-.76338-.02594s-.64879.00315-.76337.02594c-.53553.10652-.95416.52515-1.06069 1.06068-.02279.11459-.02594.26757-.02594.76338s.00315.64879.02594.76337c.10653.53553.52516.95416 1.06069 1.06069.11458.02279.26756.02594.76337.02594z" fill="#0a0e14" fill-rule="evenodd"/></svg>
