<svg fill="none" height="20" viewBox="0 0 20 20" width="20" xmlns="http://www.w3.org/2000/svg"><path clip-rule="evenodd" d="m10 1.25c.4142 0 .75.33579.75.75v1c0 .41421-.3358.75-.75.75-.41421 0-.75-.33579-.75-.75v-1c0-.41421.33579-.75.75-.75zm0 5.5c-1.79493 0-3.25 1.45507-3.25 3.25 0 1.7949 1.45507 3.25 3.25 3.25 1.7949 0 3.25-1.4551 3.25-3.25 0-1.79493-1.4551-3.25-3.25-3.25zm-4.75 3.25c0-2.62335 2.12665-4.75 4.75-4.75 2.6234 0 4.75 2.12665 4.75 4.75 0 2.6234-2.1266 4.75-4.75 4.75-2.62335 0-4.75-2.1266-4.75-4.75zm5.5 7c0-.4142-.3358-.75-.75-.75-.41421 0-.75.3358-.75.75v1c0 .4142.33579.75.75.75.4142 0 .75-.3358.75-.75zm8-7c0 .4142-.3358.75-.75.75h-1c-.4142 0-.75-.3358-.75-.75 0-.41421.3358-.75.75-.75h1c.4142 0 .75.33579.75.75zm-15.75.75c.41421 0 .75-.3358.75-.75 0-.41421-.33579-.75-.75-.75h-1c-.41421 0-.75.33579-.75.75 0 .4142.33579.75.75.75zm13.1876 5.4372c-.2929.2929-.7678.2929-1.0607 0l-.7071-.7071c-.2929-.2929-.2929-.7678 0-1.0607s.7678-.2929 1.0606 0l.7072.7071c.2928.2929.2928.7678 0 1.0607zm-11.96012-10.89951c.2929.2929.76777.2929 1.06066 0 .2929-.29289.2929-.76776 0-1.06066l-.7071-.7071c-.2929-.2929-.76777-.2929-1.06066 0-.2929.29289-.2929.76776 0 1.06066zm-.41406 10.89931c-.29289-.2929-.29289-.7678 0-1.0607l.70711-.7071c.29289-.2929.76776-.2929 1.06066 0 .29289.2929.29289.7678 0 1.0607l-.70711.7071c-.29289.2929-.76777.2929-1.06066 0zm10.89938-11.96007c-.2929.29289-.2929.76776 0 1.06066.2929.29289.7678.29289 1.0607 0l.7071-.70711c.2929-.29289.2929-.76777 0-1.06066s-.7678-.29289-1.0607 0z" fill="#0a0e14" fill-rule="evenodd"/></svg>
